<svg width="15" height="20" viewBox="0 0 15 20" fill="none" xmlns="http://www.w3.org/2000/svg">
<path d="M2.87937 5.46493L3.22686 10.8532L3.22687 10.8532C3.256 11.3041 3.43534 11.6985 3.69367 12.0111L3.51783 14.1732C3.28995 14.583 3.12212 15.0316 3.02914 15.5075H1.89142C1.88952 15.505 1.88906 15.5028 1.88899 15.502L1.88899 15.502L1.48752 10.5666L1.45014 10.1071H0.989163H0.934047C0.9009 10.1071 0.862275 10.0935 0.828264 10.0611C0.794409 10.0289 0.774627 9.98682 0.771826 9.94374C0.771825 9.94372 0.771823 9.9437 0.771822 9.94368L0.500876 5.74567L2.87937 5.46493ZM2.87937 5.46493H0.666619C0.632627 5.46493 0.59693 5.47821 0.562625 5.52031C0.526372 5.56479 0.494218 5.64199 0.500871 5.74559L2.87937 5.46493ZM8.39641 18.4683H7.89641H7.15983H6.65983V17.9683V17.2571V16.7571H6.68234C6.68895 16.5581 6.71441 16.3462 6.80843 16.1404C6.83404 16.0843 6.86338 16.0315 6.89609 15.9812H6.26165H5.76165V15.4812C5.76165 14.9011 5.98805 14.4571 6.3505 14.17C6.69448 13.8975 7.1161 13.8009 7.47268 13.8009C7.65356 13.8009 8.06969 13.8238 8.45856 14.0217C8.65988 14.1241 8.86649 14.2798 9.02171 14.5141C9.17903 14.7515 9.26417 15.0405 9.26417 15.3752C9.26417 15.6826 9.17678 15.9468 9.01206 16.1784C8.85884 16.3938 8.65129 16.5625 8.4453 16.7097C8.44499 16.71 8.44469 16.7102 8.44438 16.7104L8.15374 16.3036L8.44607 16.7092L8.39641 18.4683ZM8.39641 18.4683V17.9683V17.2571V16.7571H8.38246L8.39641 18.4683ZM5.83117 11.5609L5.79376 11.1014H5.33282H5.26094C5.08426 11.1014 4.91004 10.9479 4.897 10.7454L4.897 10.7454L4.54337 5.26542C4.51998 4.90315 4.74925 4.73673 4.91194 4.73673H10.0881C10.2506 4.73673 10.48 4.90324 10.4567 5.26541L10.9556 5.29762L10.4567 5.26542L10.103 10.7454L10.103 10.7454C10.09 10.9479 9.91577 11.1014 9.73908 11.1014H9.66721H9.20626L9.16886 11.5609L9.12309 12.1231C8.61953 11.9289 8.07277 11.8208 7.50001 11.8208C6.92729 11.8208 6.38053 11.9288 5.87694 12.123L5.83117 11.5609ZM11.7729 10.8534L12.1204 5.46515H14.3332C14.3673 5.46515 14.403 5.47846 14.4373 5.52052C14.4735 5.56502 14.5058 5.64239 14.4991 5.74637L14.2282 9.94412C14.2254 9.98722 14.2056 10.0293 14.1718 10.0616C14.1378 10.0939 14.0991 10.1076 14.066 10.1076H14.0109H13.5499L13.5125 10.567L13.111 15.5024L13.111 15.5025C13.111 15.5033 13.1105 15.5054 13.1086 15.5079H11.9702C11.8773 15.0324 11.7097 14.5842 11.4822 14.1747L11.3061 12.0111C11.5645 11.6986 11.7438 11.3041 11.7729 10.8535L11.7729 10.8534ZM11.4706 3.09992V3.09978C11.4706 2.61371 11.8646 2.21965 12.3507 2.21965C12.8368 2.21965 13.2309 2.61376 13.2309 3.09978C13.2309 3.58579 12.8368 3.9799 12.3507 3.9799C11.8644 3.9799 11.4705 3.58574 11.4706 3.09992ZM10.4221 16.3767V16.3768C10.4221 17.9909 9.11372 19.2993 7.49957 19.2993C5.88542 19.2993 4.57703 17.9909 4.57703 16.3768C4.57703 14.7626 5.88543 13.4542 7.49957 13.4542C9.11377 13.4542 10.4223 14.7627 10.4221 16.3767ZM7.48639 15.4217C7.48729 15.4177 7.48822 15.4139 7.48918 15.4101C7.49042 15.4053 7.49162 15.401 7.49276 15.3972C7.49696 15.3969 7.50172 15.3966 7.50708 15.3965C7.50708 15.3965 7.50708 15.3965 7.50708 15.3965C7.50679 15.397 7.50643 15.3976 7.50599 15.3983C7.50304 15.4028 7.49711 15.4107 7.48639 15.4217ZM7.46663 15.4014C7.46662 15.4014 7.46689 15.4013 7.46745 15.4011L7.46663 15.4014ZM3.52941 3.09978C3.52941 3.58584 3.13547 3.9799 2.64928 3.9799C2.16327 3.9799 1.76916 3.58579 1.76916 3.09978C1.76916 2.61376 2.16327 2.21965 2.64928 2.21965C3.1353 2.21965 3.52941 2.61376 3.52941 3.09978ZM8.80167 1.80166C8.80167 2.52067 8.21888 3.10332 7.50001 3.10332C6.78119 3.10332 6.19835 2.52049 6.19835 1.80166C6.19835 1.08265 6.78115 0.5 7.50001 0.5C8.21902 0.5 8.80167 1.08279 8.80167 1.80166Z" stroke="#1269B3"/>
</svg>
