<svg width="18" height="14" viewBox="0 0 18 14" fill="none" xmlns="http://www.w3.org/2000/svg">
<path fill-rule="evenodd" clip-rule="evenodd" d="M2 0C0.895431 0 0 0.89543 0 2V12C0 13.1046 0.89543 14 2 14H16C17.1046 14 18 13.1046 18 12V2C18 0.895431 17.1046 0 16 0H2ZM2.23438 11H4.12358L4.60201 9.47301H7.11361L7.59304 11H9.48224L7.02841 3.72727H4.68821L2.23438 11ZM6.69439 8.13778L5.88494 5.55966H5.82812L5.02036 8.13778H6.69439ZM10.2653 3.72727V11H12.0231V8.51065H12.9234L14.2532 11H16.1708L14.6633 8.23319C15.0638 8.04868 15.3734 7.7825 15.592 7.43466C15.8121 7.08191 15.9222 6.65341 15.9222 6.14915C15.9222 5.65199 15.8145 5.2223 15.5991 4.86009C15.3836 4.4955 15.0771 4.21615 14.6793 4.02202C14.284 3.82552 13.814 3.72727 13.2695 3.72727H10.2653ZM12.0231 7.12571H12.8896C13.1547 7.12571 13.3761 7.09138 13.5536 7.02273C13.7335 6.9517 13.8697 6.84517 13.962 6.70312C14.0543 6.55871 14.1005 6.37405 14.1005 6.14915C14.1005 5.92424 14.0543 5.7384 13.962 5.59162C13.8697 5.44247 13.7335 5.3312 13.5536 5.25781C13.3737 5.18205 13.1523 5.14418 12.8896 5.14418H12.0231V7.12571Z" fill="white"/>
</svg>
