<svg width="22" height="15" viewBox="0 0 22 15" fill="none" xmlns="http://www.w3.org/2000/svg">
<path d="M16.1935 8.97014e-07C14.3494 0.00212466 13.2231 2.04914 14.2871 3.59305L15.3511 5.20292L2.31691 5.20292C2.31691 5.20292 1.76085 5.19475 1.18842 5.4787C0.615995 5.76265 0 6.3523 0 7.5C0 8.6477 0.615994 9.23735 1.18842 9.5213C1.76085 9.80525 2.31691 9.79708 2.31691 9.79708L15.3511 9.79708L14.2871 11.4069C13.2231 12.9509 14.3494 14.9979 16.1935 15C16.98 15.0007 17.7153 14.6047 18.1418 13.9496L21.6121 8.7926C21.8747 8.40233 22.0035 7.95105 21.9999 7.5C22.0035 7.04895 21.8747 6.59767 21.6121 6.2074L18.1418 1.05045C17.7153 0.395338 16.98 -0.000687892 16.1935 8.97014e-07Z" fill="#1269B3"/>
</svg>
