<svg width="22" height="15" viewBox="0 0 22 15" fill="none" xmlns="http://www.w3.org/2000/svg">
<path d="M5.80649 15C7.65059 14.9979 8.77686 12.9509 7.71294 11.4069L6.6489 9.79708L19.6831 9.79708C19.6831 9.79708 20.2392 9.80525 20.8116 9.5213C21.384 9.23735 22 8.6477 22 7.5C22 6.3523 21.384 5.76265 20.8116 5.4787C20.2392 5.19475 19.6831 5.20291 19.6831 5.20291L6.6489 5.20291L7.71294 3.59305C8.77686 2.04914 7.6506 0.00211781 5.80649 -4.62008e-07C5.02001 -0.000689084 4.28475 0.395337 3.8582 1.05045L0.387919 6.2074C0.125325 6.59767 -0.00346305 7.04895 7.12276e-05 7.5C-0.00346122 7.95104 0.125325 8.40233 0.387919 8.7926L3.8582 13.9495C4.28474 14.6047 5.02001 15.0007 5.80649 15Z" fill="#1269B3"/>
</svg>
