<svg width="16" height="16" viewBox="0 0 16 16" fill="none" xmlns="http://www.w3.org/2000/svg">
<path d="M15.0041 7.22459C14.9945 7.36624 14.9337 7.49882 14.8339 7.59553C14.7341 7.69223 14.6028 7.74582 14.4665 7.74548H14.4289C14.3582 7.7405 14.2892 7.72104 14.2258 7.68819C14.1624 7.65534 14.1058 7.60977 14.0594 7.55408C14.0129 7.49839 13.9775 7.43369 13.9551 7.36369C13.9327 7.29369 13.9238 7.21977 13.9289 7.14618C14.0044 6.37007 13.9165 5.58617 13.6714 4.84907C13.4262 4.11198 13.0298 3.43944 12.5097 2.8783C11.9714 2.3361 11.3259 1.92288 10.6184 1.66748C9.91084 1.41209 9.15834 1.32069 8.41341 1.39967C8.27083 1.41007 8.13014 1.36103 8.02226 1.26334C7.91439 1.16566 7.84818 1.02733 7.8382 0.878784C7.82822 0.730239 7.87529 0.583648 7.96905 0.471258C8.0628 0.358868 8.19557 0.289887 8.33815 0.279489C9.23702 0.189545 10.1439 0.304248 10.996 0.615654C11.8481 0.92706 12.6251 1.42773 13.2731 2.08298C13.902 2.75811 14.3825 3.5676 14.6814 4.4554C14.9803 5.3432 15.0904 6.28807 15.0041 7.22459ZM7.68231 2.37422C7.61171 2.37937 7.54278 2.39896 7.47945 2.43186C7.41612 2.46476 7.35963 2.51034 7.31321 2.56599C7.26678 2.62164 7.23133 2.68627 7.20888 2.7562C7.18643 2.82612 7.17742 2.89996 7.18236 2.97352C7.1873 3.04707 7.2061 3.11889 7.23768 3.18487C7.26926 3.25085 7.31301 3.30971 7.36642 3.35808C7.41983 3.40644 7.48187 3.44338 7.54898 3.46677C7.61609 3.49016 7.68697 3.49955 7.75757 3.4944C8.32003 3.43494 8.88817 3.5044 9.42214 3.69791C9.95611 3.89142 10.443 4.20429 10.8486 4.61458C11.2412 5.03808 11.5407 5.54546 11.7264 6.10156C11.912 6.65766 11.9794 7.24917 11.9238 7.83509C11.9187 7.90868 11.9275 7.9826 11.9499 8.0526C11.9723 8.1226 12.0077 8.1873 12.0542 8.24299C12.1007 8.29868 12.1572 8.34425 12.2206 8.3771C12.284 8.40994 12.3531 8.42941 12.4237 8.43438H12.4613C12.5976 8.43473 12.729 8.38114 12.8288 8.28443C12.9286 8.18773 12.9894 8.05515 12.9989 7.9135C13.0659 7.16629 12.9765 6.41285 12.7371 5.70506C12.4977 4.99728 12.1138 4.35199 11.612 3.81365C11.0965 3.291 10.4779 2.89152 9.79932 2.64295C9.12073 2.39439 8.39833 2.30269 7.68231 2.37422ZM7.62855 5.54993C7.9417 5.51871 8.25764 5.55752 8.55523 5.66377C8.85282 5.77002 9.12521 5.94126 9.35416 6.16602C9.5699 6.40457 9.73425 6.68836 9.83623 6.99842C9.93821 7.30847 9.97546 7.63764 9.9455 7.96391C9.93512 8.11164 9.98133 8.25763 10.074 8.36995C10.1667 8.48226 10.2983 8.55175 10.4401 8.5632H10.4777C10.614 8.56355 10.7453 8.50996 10.8451 8.41325C10.9449 8.31655 11.0057 8.18397 11.0153 8.04232C11.0653 7.55589 11.0101 7.06395 10.8539 6.60263C10.6976 6.1413 10.4441 5.7223 10.1121 5.37637C9.78005 5.03044 9.37789 4.76636 8.93511 4.60353C8.49233 4.44069 8.02017 4.38322 7.55329 4.43535C7.48269 4.4405 7.41376 4.46008 7.35043 4.49299C7.2871 4.52589 7.23061 4.57147 7.18419 4.62712C7.13776 4.68277 7.10231 4.7474 7.07986 4.81732C7.05741 4.88725 7.0484 4.96109 7.05334 5.03464C7.05829 5.1082 7.07708 5.18001 7.10866 5.246C7.14025 5.31198 7.18399 5.37084 7.2374 5.4192C7.29082 5.46757 7.35285 5.50451 7.41996 5.5279C7.48708 5.55129 7.55795 5.56068 7.62855 5.55553V5.54993ZM12.2463 11.3973C12.3898 11.5512 12.5026 11.7333 12.5782 11.9329C12.6538 12.1325 12.6906 12.3458 12.6866 12.5604C12.6826 12.7749 12.6378 12.9866 12.5549 13.183C12.4719 13.3794 12.3524 13.5568 12.2033 13.7048L10.4831 15.4243C10.1953 15.716 9.80941 15.8788 9.40792 15.878C9.11695 15.8728 8.83275 15.7857 8.58543 15.6259C6.85698 14.5046 5.26807 13.1652 3.85477 11.6381C2.44101 10.1107 1.21491 8.40616 0.204641 6.56369C0.0321252 6.24909 -0.0340922 5.88328 0.0165893 5.52482C0.0672708 5.16636 0.23192 4.83598 0.48418 4.58657L2.20442 2.8615C2.50399 2.564 2.90421 2.40181 3.31799 2.4102C3.73176 2.41859 4.12562 2.59689 4.41385 2.90631L5.83842 4.45215C6.12561 4.76453 6.28231 5.18271 6.27425 5.61519C6.26619 6.04766 6.09402 6.45919 5.79542 6.75972L5.29547 7.2582C5.22728 7.32464 5.17924 7.41043 5.15727 7.50497C5.1353 7.59952 5.14036 7.6987 5.17183 7.79028C5.37279 8.3836 5.69304 8.92536 6.11116 9.37933C6.52927 9.83331 7.0356 10.189 7.59629 10.4227C7.68639 10.4621 7.78575 10.4725 7.88156 10.4525C7.97737 10.4326 8.06525 10.3832 8.13387 10.3107L8.63381 9.8066C8.93339 9.50911 9.3336 9.34691 9.74738 9.3553C10.1612 9.36369 10.555 9.54199 10.8432 9.85141L12.2463 11.3973ZM11.612 12.5174C11.6125 12.451 11.6004 12.3852 11.5764 12.3237C11.5524 12.2622 11.517 12.2062 11.4722 12.159L10.0476 10.6131C9.95514 10.5184 9.83062 10.4653 9.7009 10.4653C9.57118 10.4653 9.44666 10.5184 9.35416 10.6131L8.85422 11.1172C8.63765 11.3336 8.36607 11.4808 8.07167 11.5414C7.77727 11.6019 7.47237 11.5733 7.19311 11.4589C6.49105 11.1668 5.85693 10.7219 5.33314 10.1539C4.80935 9.58597 4.40797 8.90808 4.15582 8.16554C4.05671 7.87072 4.04101 7.55244 4.11059 7.24859C4.18016 6.94474 4.33207 6.66812 4.54825 6.45167L5.04819 5.94759C5.09581 5.90321 5.13385 5.84882 5.1598 5.78799C5.18574 5.72717 5.19901 5.6613 5.19871 5.59473C5.20191 5.52764 5.19161 5.46059 5.16847 5.3979C5.14532 5.3352 5.10984 5.27824 5.06432 5.23068L3.63974 3.68483C3.54601 3.58577 3.41845 3.52939 3.28494 3.528C3.15843 3.53015 3.03741 3.58219 2.94627 3.67363L1.22603 5.3931C1.1475 5.47078 1.09593 5.5734 1.07939 5.6849C1.06285 5.79639 1.08228 5.91045 1.13465 6.0092C2.10499 7.77195 3.27843 9.40457 4.62888 10.8708C5.97435 12.3241 7.48331 13.6029 9.12301 14.6794C9.21711 14.7418 9.32855 14.7697 9.43961 14.7585C9.55066 14.7474 9.65494 14.6978 9.73584 14.6178L11.4561 12.8927C11.5469 12.8029 11.6024 12.6811 11.612 12.551V12.5174Z" fill="#1269B3"/>
</svg>
