<svg width="26" height="30" viewBox="0 0 26 30" fill="none" xmlns="http://www.w3.org/2000/svg">
<path d="M15.6495 12.8375C15.7372 12.9406 15.8651 13 15.9998 13C16.1346 13 16.2625 12.9406 16.3501 12.8375L21.8887 6.3375C22.0064 6.20007 22.0332 6.006 21.9575 5.84164C21.8818 5.67729 21.7188 5.57143 21.5384 5.57143H18.7691V0.464286C18.7691 0.207536 18.5628 0 18.3076 0H13.6921C13.4369 0 13.2306 0.207536 13.2306 0.464286V5.57143H10.4613C10.2808 5.57143 10.1174 5.67729 10.0422 5.84164C9.96698 6.006 9.99375 6.20007 10.111 6.3375L15.6495 12.8375ZM13.6921 6.5C13.9473 6.5 14.1537 6.29246 14.1537 6.03571V0.928571H17.846V6.03571C17.846 6.29246 18.0523 6.5 18.3076 6.5H20.535L15.9998 11.8226L11.4647 6.5H13.6921Z" fill="#1269B3"/>
<path d="M25.5356 11.7391H21.3571H20.2293C20.0938 11.7391 19.9652 11.7976 19.8769 11.8989L16.9199 15.2913L16.25 16.0592L15.58 15.2909L14.2819 13.8017L14.2814 13.8008L12.6234 11.8985C12.5352 11.7971 12.4061 11.7387 12.2706 11.7387H10.2143H5.4702L4.61731 9.30724C4.55324 9.12372 4.37681 9 4.17856 9H0V9.91304H3.84753L4.64609 12.1902C4.64563 12.2422 4.65074 12.2947 4.66884 12.3454L5.79891 15.5401V15.541L6.87559 18.5847L8.35712 22.7723V25.8913C8.35712 26.1438 8.56466 26.3478 8.82141 26.3478H10.2263C9.93151 26.7304 9.74997 27.2015 9.74997 27.7174C9.74997 28.976 10.7914 30 12.0714 30C13.3514 30 14.3928 28.976 14.3928 27.7174C14.3928 27.2015 14.2113 26.7304 13.9165 26.3478H17.6544C17.3601 26.7304 17.1785 27.2015 17.1785 27.7174C17.1785 28.976 18.2199 30 19.4999 30C20.78 30 21.8214 28.976 21.8214 27.7174C21.8214 27.2015 21.6398 26.7304 21.345 26.3478H22.2857V25.4348H9.28569V23.1522H10.2143H13.9285H17.6428H21.3571H22.2857C22.4899 23.1522 22.6701 23.0207 22.73 22.8285L25.98 12.3285C26.0227 12.1902 25.9962 12.04 25.9089 11.9236C25.8212 11.8076 25.6824 11.7391 25.5356 11.7391ZM12.0714 29.087C11.3035 29.087 10.6785 28.4725 10.6785 27.7174C10.6785 27.123 11.0681 26.6208 11.6071 26.4318V27.7174H12.5357V26.4318C13.0747 26.6208 13.4642 27.123 13.4642 27.7174C13.4642 28.4725 12.8393 29.087 12.0714 29.087ZM19.4999 29.087C18.732 29.087 18.1071 28.4725 18.1071 27.7174C18.1071 27.123 18.4966 26.6208 19.0357 26.4318V27.7174H19.9642V26.4318C20.5033 26.6208 20.8928 27.123 20.8928 27.7174C20.8928 28.4725 20.2679 29.087 19.4999 29.087ZM23.0717 18.587H21.8214V15.8478H23.9199L23.3549 17.6739L23.0717 18.587ZM14.3928 18.587V15.8478H14.8427L15.8976 17.0576C16.0735 17.2598 16.4264 17.2598 16.6023 17.0576L17.1785 16.397V18.587H14.3928ZM17.1785 19.5V22.2391H14.3928V19.5H17.1785ZM9.15244 22.2391L8.19184 19.5H9.74997V22.2391H9.15244ZM7.87148 18.587L6.91087 15.8478H9.74997V18.587H7.87148ZM10.6785 15.8478H13.4642V18.587H10.6785V15.8478ZM18.1071 15.8478H20.8928V18.587H18.1071V15.8478ZM24.2027 14.9348H21.8214V12.6522H24.9089L24.2027 14.9348ZM20.8928 12.6522V14.9348H18.4534L20.4429 12.6522H20.8928ZM12.057 12.6522L13.4642 14.2669V14.9348H10.6785V12.6522H12.057ZM9.74997 12.6522V14.9348H6.59098L5.79056 12.6522H9.74997ZM10.6785 22.2391V19.5H13.4642V22.2391H10.6785ZM18.1071 22.2391V19.5H20.8928V22.2391H18.1071ZM21.9416 22.2391H21.8214V19.5H22.7894L21.9416 22.2391Z" fill="#1269B3"/>
</svg>
