<svg width="27" height="27" viewBox="0 0 27 27" fill="none" xmlns="http://www.w3.org/2000/svg">
<path d="M6.37846 21.685C5.46846 22.3044 4.3716 21.2135 4.98605 20.3001L8.94561 14.4145C9.29628 13.8932 10.0351 13.8206 10.4805 14.2636L12.385 16.1578C12.8304 16.6008 12.7618 17.34 12.2425 17.6935L6.37846 21.685Z" fill="white"/>
<path fill-rule="evenodd" clip-rule="evenodd" d="M5.00024 9.5C5.00024 4.25329 9.25354 0 14.5002 0H17.5002C22.7469 0 27.0002 4.25329 27.0002 9.5C27.0002 14.7467 22.7469 19 17.5002 19H14.5002C9.25354 19 5.00024 14.7467 5.00024 9.5ZM10.5002 6C10.5002 5.72386 10.7241 5.5 11.0002 5.5H20.5002C20.7764 5.5 21.0002 5.72386 21.0002 6C21.0002 6.27614 20.7764 6.5 20.5002 6.5H11.0002C10.7241 6.5 10.5002 6.27614 10.5002 6ZM11.0002 12C10.7241 12 10.5002 12.2239 10.5002 12.5C10.5002 12.7761 10.7241 13 11.0002 13H20.5002C20.7764 13 21.0002 12.7761 21.0002 12.5C21.0002 12.2239 20.7764 12 20.5002 12H11.0002ZM11.0002 9.5C11.0002 9.22386 11.2241 9 11.5002 9H16.5002C16.7764 9 17.0002 9.22386 17.0002 9.5C17.0002 9.77614 16.7764 10 16.5002 10H11.5002C11.2241 10 11.0002 9.77614 11.0002 9.5ZM19.5002 9C19.2241 9 19.0002 9.22386 19.0002 9.5C19.0002 9.77614 19.2241 10 19.5002 10H22.5002C22.7764 10 23.0002 9.77614 23.0002 9.5C23.0002 9.22386 22.7764 9 22.5002 9H19.5002Z" fill="white"/>
</svg>
