<svg width="27" height="25" viewBox="0 0 27 25" fill="none" xmlns="http://www.w3.org/2000/svg">
<path d="M5.57434 20.03C4.8833 20.543 4.01337 19.6778 4.52266 18.984L7.58447 14.8128C7.94637 14.3197 8.66214 14.2642 9.09579 14.6955L9.83795 15.4336C10.2716 15.8649 10.2199 16.581 9.72887 16.9456L5.57434 20.03Z" fill="white"/>
<path fill-rule="evenodd" clip-rule="evenodd" d="M7.98828 8.9296C7.98828 4.49762 11.5811 0.904785 16.0131 0.904785H18.5473C22.9792 0.904785 26.5721 4.49762 26.5721 8.9296C26.5721 13.3616 22.9792 16.9544 18.5473 16.9544H16.0131C11.5811 16.9544 7.98828 13.3616 7.98828 8.9296ZM12.9065 5.97318C12.9065 5.89033 12.9736 5.82318 13.0565 5.82318H21.0813C21.1641 5.82318 21.2313 5.89033 21.2313 5.97318C21.2313 6.05602 21.1641 6.12318 21.0813 6.12318H13.0565C12.9736 6.12318 12.9065 6.05602 12.9065 5.97318ZM13.0565 11.3138C12.9736 11.3138 12.9065 11.381 12.9065 11.4638C12.9065 11.5467 12.9736 11.6138 13.0565 11.6138H21.0813C21.1641 11.6138 21.2313 11.5467 21.2313 11.4638C21.2313 11.381 21.1641 11.3138 21.0813 11.3138H13.0565ZM13.3287 8.92974C13.3287 8.84689 13.3958 8.77974 13.4787 8.77974H17.7023C17.7851 8.77974 17.8523 8.84689 17.8523 8.92974C17.8523 9.01258 17.7851 9.07974 17.7023 9.07974H13.4787C13.3958 9.07974 13.3287 9.01258 13.3287 8.92974ZM20.2365 8.77974C20.1536 8.77974 20.0865 8.84689 20.0865 8.92974C20.0865 9.01258 20.1536 9.07974 20.2365 9.07974H22.7706C22.8534 9.07974 22.9206 9.01258 22.9206 8.92974C22.9206 8.84689 22.8534 8.77974 22.7706 8.77974H20.2365Z" fill="white"/>
</svg>
