<svg width="20" height="22" viewBox="0 0 20 22" fill="none" xmlns="http://www.w3.org/2000/svg">
<path d="M19.3972 1.93953C19.1604 1.93953 18.902 1.96196 18.6437 1.96196H18.6222V0.99746C18.6222 0.661008 18.3638 0.391846 18.0409 0.391846C15.2637 0.391846 12.5511 0.9526 9.98924 2.05168C7.42734 0.9526 4.71475 0.391846 1.93757 0.391846C1.61464 0.391846 1.3563 0.638577 1.3563 0.99746V1.98439H1.33477C1.07643 1.96196 0.818084 1.93953 0.559742 1.93953C0.236814 1.93953 0 2.20869 0 2.54514V14.478C0 14.8144 0.236814 15.0612 0.559742 15.0612C2.38967 15.0612 4.19806 15.2855 5.94187 15.7341C5.79117 16.2051 5.68353 16.6986 5.68353 17.2145C5.68353 19.6818 7.6211 21.7005 9.98924 21.7005C12.3574 21.7005 14.2949 19.6818 14.2949 17.2145C14.2949 16.6986 14.1873 16.2051 14.0366 15.7341C15.8019 15.2855 17.5888 15.0612 19.4187 15.0612C19.7417 15.0612 20 14.8144 20 14.478V2.54514C19.9785 2.20869 19.7201 1.93953 19.3972 1.93953ZM2.49731 1.58064C4.86545 1.64793 7.19053 2.16383 9.42949 3.1059V12.7957C8.65447 12.9079 7.96556 13.2219 7.38428 13.6929C5.79117 13.2443 4.15501 12.9752 2.51884 12.9303V1.58064H2.49731ZM9.98924 20.6463C8.18084 20.6463 6.7169 19.121 6.7169 17.2369C6.7169 15.3528 8.18084 13.8051 9.98924 13.8051C11.7976 13.8051 13.2616 15.3303 13.2616 17.2145C13.2616 19.0986 11.7976 20.6463 9.98924 20.6463ZM17.4812 12.9303C15.845 12.9752 14.2088 13.2443 12.6157 13.6929C12.0344 13.2219 11.324 12.9079 10.5705 12.7957V3.1059C12.7879 2.16383 15.113 1.64793 17.4812 1.58064V12.9303Z" fill="#1269B3"/>
<path d="M4.04741 4.54117C5.25301 4.67575 6.45861 4.92249 7.64268 5.3038C7.68573 5.32623 7.75032 5.32623 7.81491 5.32623C8.07325 5.32623 8.28853 5.14679 8.35312 4.90006C8.43923 4.58603 8.267 4.24958 7.9656 4.15986C6.71695 3.77855 5.44677 3.50939 4.17658 3.35237C3.87518 3.32994 3.59531 3.55425 3.55226 3.86827C3.53073 4.02528 3.57379 4.18229 3.68143 4.29444C3.76754 4.45145 3.89671 4.54117 4.04741 4.54117Z" fill="#1269B3"/>
<path d="M4.04746 6.80704C5.25305 6.94162 6.45865 7.18835 7.64272 7.56967C7.68578 7.5921 7.75036 7.5921 7.79342 7.5921C8.05176 7.5921 8.26705 7.41266 8.33163 7.16592C8.41775 6.8519 8.24552 6.51545 7.94412 6.42573C6.71699 6.04442 5.42528 5.77525 4.1551 5.61824C3.83217 5.59581 3.57383 5.82012 3.53077 6.13414C3.50924 6.29115 3.5523 6.44816 3.65994 6.56031C3.76759 6.71732 3.89676 6.80704 4.04746 6.80704Z" fill="#1269B3"/>
<path d="M4.04741 9.07218C5.25301 9.20676 6.45861 9.45349 7.64268 9.8348C7.68573 9.85723 7.75032 9.85723 7.81491 9.85723C8.07325 9.85723 8.28853 9.67779 8.35312 9.43106C8.43923 9.11704 8.267 8.78059 7.9656 8.69087C6.73848 8.30955 5.44677 8.04039 4.17658 7.88338C3.87518 7.86095 3.59531 8.08525 3.55226 8.39927C3.53073 8.55628 3.57379 8.7133 3.68143 8.82545C3.76754 8.98246 3.89671 9.04975 4.04741 9.07218Z" fill="#1269B3"/>
<path d="M7.64272 12.1005C7.68578 12.1229 7.75036 12.1229 7.79342 12.1229C8.05176 12.1229 8.26705 11.9435 8.33163 11.6968C8.41775 11.3827 8.24552 11.0463 7.94412 10.9566C6.71699 10.5753 5.42528 10.3061 4.1551 10.1491C3.83217 10.1042 3.5523 10.351 3.53077 10.665C3.50924 10.822 3.5523 10.979 3.65994 11.0911C3.74606 11.2257 3.89676 11.293 4.04746 11.3155C5.25305 11.4725 6.45865 11.7192 7.64272 12.1005Z" fill="#1269B3"/>
<path d="M12.1846 5.32615C12.2492 5.32615 12.2922 5.32615 12.3568 5.30372C13.5194 4.94484 14.7465 4.67567 15.9521 4.54109C16.1028 4.51866 16.232 4.45137 16.3396 4.31679C16.4257 4.18221 16.4688 4.04763 16.4688 3.89062C16.4472 3.5766 16.1889 3.35229 15.8875 3.35229C15.866 3.35229 15.866 3.35229 15.8444 3.35229C14.5743 3.48688 13.3041 3.75604 12.0554 4.15978C11.9047 4.20464 11.7971 4.31679 11.711 4.45137C11.6464 4.58595 11.6249 4.74296 11.6679 4.89998C11.711 5.16914 11.9263 5.32615 12.1846 5.32615Z" fill="#1269B3"/>
<path d="M12.1846 7.59123C12.2492 7.59123 12.2922 7.59123 12.3568 7.5688C13.5194 7.20992 14.7465 6.94075 15.9521 6.80617C16.1028 6.78374 16.232 6.71645 16.3396 6.58187C16.4257 6.44729 16.4688 6.31271 16.4688 6.1557C16.4257 5.84168 16.1458 5.59494 15.8444 5.6398C14.5743 5.77439 13.2825 6.04355 12.0554 6.44729C11.9047 6.49215 11.7971 6.6043 11.711 6.73888C11.6464 6.87346 11.6249 7.03047 11.6679 7.18749C11.711 7.41179 11.9263 7.59123 12.1846 7.59123Z" fill="#1269B3"/>
<path d="M12.1846 9.85686C12.2492 9.85686 12.2922 9.85686 12.3568 9.83443C13.5194 9.47555 14.725 9.20639 15.9521 9.07181C16.1028 9.04938 16.232 8.98209 16.3396 8.84751C16.4257 8.71292 16.4688 8.57834 16.4688 8.42133C16.4257 8.10731 16.1458 7.86058 15.8444 7.88301C14.5743 8.01759 13.2825 8.28675 12.0554 8.69049C11.9047 8.73535 11.7971 8.8475 11.711 8.98209C11.6464 9.11667 11.6249 9.27368 11.6679 9.43069C11.711 9.67742 11.9263 9.85686 12.1846 9.85686Z" fill="#1269B3"/>
<path d="M12.1846 12.1225C12.2492 12.1225 12.2922 12.1225 12.3568 12.1C13.5194 11.7412 14.7465 11.472 15.9521 11.3374C16.1028 11.315 16.232 11.2477 16.3396 11.1131C16.4257 11.001 16.4688 10.844 16.4688 10.6869C16.4257 10.3729 16.1458 10.1262 15.8444 10.1711C14.5743 10.3056 13.2825 10.5748 12.0554 10.9785C11.9047 11.0234 11.7971 11.1356 11.711 11.2701C11.6464 11.4047 11.6249 11.5617 11.6679 11.7187C11.711 11.943 11.9263 12.1225 12.1846 12.1225Z" fill="#1269B3"/>
<path d="M9.51597 15.442C9.2361 15.2402 8.87012 15.4645 8.87012 15.8009V18.6047C8.87012 18.9411 9.2361 19.1654 9.51597 18.9636L11.5397 17.5505C11.798 17.371 11.798 16.9897 11.5397 16.8327L9.51597 15.442Z" fill="#1269B3"/>
</svg>
