<svg width="15" height="15" viewBox="0 0 15 15" fill="none" xmlns="http://www.w3.org/2000/svg">
<path d="M7.97023 14.0596C11.8464 14.0596 15 10.906 15 7.0298C15 3.15358 11.8464 0 7.97023 0C4.09401 0 0.94043 3.15352 0.94043 7.0298C0.94043 10.9061 4.09401 14.0596 7.97023 14.0596ZM4.45524 6.94185C4.46942 6.43179 4.91356 6.04109 5.42128 6.09165C6.29568 6.17948 7.12021 5.42837 7.03208 4.47487C6.98544 3.96985 7.37521 3.52987 7.88216 3.5154C9.81066 3.45921 11.4856 5.01581 11.4856 7.03009C11.4856 8.96861 9.90845 10.5457 7.96994 10.5457C5.9887 10.5457 4.40057 8.9106 4.45524 6.94185Z" fill="white"/>
<path d="M7.96995 8.78799C8.93921 8.78799 9.72777 7.99943 9.72777 7.03017C9.72777 6.30402 9.29213 5.6974 8.69248 5.42517C8.39007 6.5872 7.46874 7.46588 6.36548 7.75363C6.63689 8.35152 7.24585 8.78799 7.96995 8.78799Z" fill="white"/>
</svg>
