<svg width="15" height="15" viewBox="0 0 15 15" fill="none" xmlns="http://www.w3.org/2000/svg">
<path d="M0 11.4939C0 11.7861 0.0974071 12.1757 0.389624 12.3705L2.53255 14.5134C2.72736 14.7083 3.11698 14.9031 3.4092 14.9031C3.70142 14.9031 4.09104 14.8057 4.28585 14.5134L7.50024 11.2991L10.7146 14.5134C11.2017 15.0005 11.9809 15.0005 12.4679 14.5134L14.6109 12.3705C14.8057 12.1757 15.0005 11.7861 15.0005 11.4939C15.0005 11.2017 14.9031 10.812 14.6109 10.6172L11.3965 7.50024L14.6109 4.28585C14.8057 4.09104 15.0005 3.70142 15.0005 3.4092C15.0005 3.11698 14.9031 2.72736 14.6109 2.53255L12.4679 0.389622C11.9809 -0.097406 11.2017 -0.097406 10.7146 0.389622L7.50024 3.60401L4.28585 0.389622C4.09104 0.194811 3.70142 0 3.4092 0C3.11698 0 2.72736 0.0974053 2.53255 0.389622L0.389624 2.53255C0.194813 2.72736 0 3.11698 0 3.4092C0 3.70142 0.0974071 4.09104 0.389624 4.28585L3.60401 7.50024L0.389624 10.7146C0.194813 10.9094 0 11.2017 0 11.4939ZM5.45472 8.37689C5.94175 7.88986 5.94175 7.11061 5.45472 6.62358L2.24033 3.4092L3.4092 2.24033L6.62359 5.45472C7.11062 5.94174 7.88986 5.94174 8.37689 5.45472L11.5913 2.24033L12.7601 3.4092L9.54576 6.62358C9.05873 7.11061 9.05873 7.88986 9.54576 8.37689L12.7601 11.5913L11.5913 12.7601L8.37689 9.54576C7.88986 9.05873 7.11062 9.05873 6.62359 9.54576L3.4092 12.7601L2.24033 11.4939L5.45472 8.37689Z" fill="#1269B3"/>
</svg>
