<svg width="32" height="32" viewBox="0 0 32 32" fill="none" xmlns="http://www.w3.org/2000/svg">
<path d="M4.41211 31.501H27.5881C27.8533 31.501 28.1077 31.3956 28.2952 31.2081C28.4828 31.0206 28.5881 30.7662 28.5881 30.501V1.5C28.5881 1.23478 28.4828 0.98043 28.2952 0.792893C28.1077 0.605357 27.8533 0.5 27.5881 0.5H4.41211C4.14689 0.5 3.89254 0.605357 3.705 0.792893C3.51747 0.98043 3.41211 1.23478 3.41211 1.5V30.501C3.41211 30.7662 3.51747 31.0206 3.705 31.2081C3.89254 31.3956 4.14689 31.501 4.41211 31.501ZM5.41211 2.5H26.5881V29.501H5.41211V2.5Z" fill="black"/>
<path d="M16 10.3079C17.782 10.3079 19.232 8.85895 19.232 7.07695C19.232 5.29495 17.782 3.84595 16 3.84595C14.218 3.84595 12.769 5.29495 12.769 7.07695C12.769 8.85895 14.218 10.3079 16 10.3079ZM16 5.84595C16.68 5.84595 17.232 6.39795 17.232 7.07695C17.2229 7.39749 17.0891 7.70183 16.8592 7.92533C16.6292 8.14882 16.3212 8.27385 16.0005 8.27385C15.6798 8.27385 15.3718 8.14882 15.1419 7.92533C14.9119 7.70183 14.7781 7.39749 14.769 7.07695C14.769 6.39795 15.321 5.84595 16 5.84595ZM23.125 15.6219H8.87501C8.60979 15.6219 8.35544 15.7273 8.1679 15.9148C7.98037 16.1024 7.87501 16.3567 7.87501 16.6219C7.87501 16.8872 7.98037 17.1415 8.1679 17.3291C8.35544 17.5166 8.60979 17.6219 8.87501 17.6219H23.125C23.3902 17.6219 23.6446 17.5166 23.8321 17.3291C24.0197 17.1415 24.125 16.8872 24.125 16.6219C24.125 16.3567 24.0197 16.1024 23.8321 15.9148C23.6446 15.7273 23.3902 15.6219 23.125 15.6219ZM23.125 11.6539H8.87501C8.60979 11.6539 8.35544 11.7593 8.1679 11.9468C7.98037 12.1344 7.87501 12.3887 7.87501 12.6539C7.87501 12.9192 7.98037 13.1735 8.1679 13.3611C8.35544 13.5486 8.60979 13.6539 8.87501 13.6539H23.125C23.3902 13.6539 23.6446 13.5486 23.8321 13.3611C24.0197 13.1735 24.125 12.9192 24.125 12.6539C24.125 12.3887 24.0197 12.1344 23.8321 11.9468C23.6446 11.7593 23.3902 11.6539 23.125 11.6539ZM23.125 19.5909H8.87501C8.60979 19.5909 8.35544 19.6963 8.1679 19.8838C7.98037 20.0714 7.87501 20.3257 7.87501 20.5909C7.87501 20.8562 7.98037 21.1105 8.1679 21.2981C8.35544 21.4856 8.60979 21.5909 8.87501 21.5909H23.125C23.3902 21.5909 23.6446 21.4856 23.8321 21.2981C24.0197 21.1105 24.125 20.8562 24.125 20.5909C24.125 20.3257 24.0197 20.0714 23.8321 19.8838C23.6446 19.6963 23.3902 19.5909 23.125 19.5909ZM23.125 24.3789H19.159C18.8938 24.3789 18.6394 24.4843 18.4519 24.6718C18.2644 24.8594 18.159 25.1137 18.159 25.3789C18.159 25.6442 18.2644 25.8985 18.4519 26.0861C18.6394 26.2736 18.8938 26.3789 19.159 26.3789H23.125C23.3902 26.3789 23.6446 26.2736 23.8321 26.0861C24.0197 25.8985 24.125 25.6442 24.125 25.3789C24.125 25.1137 24.0197 24.8594 23.8321 24.6718C23.6446 24.4843 23.3902 24.3789 23.125 24.3789ZM11.922 22.8889L9.65001 25.9859L8.84001 25.1289C8.74973 25.0335 8.64154 24.9569 8.52161 24.9033C8.40169 24.8497 8.27239 24.8202 8.14109 24.8166C8.00979 24.813 7.87906 24.8353 7.75636 24.8822C7.63367 24.9291 7.52142 24.9997 7.42601 25.0899C7.33061 25.1802 7.25392 25.2884 7.20032 25.4083C7.14673 25.5283 7.11728 25.6576 7.11366 25.7889C7.11004 25.9202 7.13232 26.0509 7.17922 26.1736C7.22612 26.2963 7.29673 26.4085 7.38701 26.5039L9.02101 28.2309C9.11437 28.33 9.22704 28.4089 9.35208 28.4628C9.47712 28.5166 9.61187 28.5442 9.74801 28.5439C9.76901 28.5439 9.78901 28.5439 9.81101 28.5419C9.95719 28.5329 10.0996 28.4918 10.2282 28.4217C10.3567 28.3515 10.4683 28.254 10.555 28.1359L13.536 24.0729C13.693 23.8589 13.7586 23.5913 13.7183 23.3289C13.6779 23.0666 13.535 22.831 13.321 22.6739C13.215 22.5962 13.0948 22.5401 12.9671 22.5088C12.8395 22.4776 12.7069 22.4717 12.577 22.4917C12.3146 22.532 12.079 22.6749 11.922 22.8889Z" fill="black"/>
</svg>
