<svg width="27" height="22" viewBox="0 0 27 22" fill="none" xmlns="http://www.w3.org/2000/svg">
<path d="M24.8982 14.1791L22.0492 11.363C21.832 11.1483 21.5314 11.0321 21.2385 11.0321C20.9733 11.0321 20.7333 11.1382 20.5313 11.3049C20.5414 11.1306 20.5565 10.9563 20.5565 10.782C20.5565 5.38967 16.1694 1 10.7745 1C5.38462 0.997475 1 5.38462 1 10.777C1 16.1694 5.38462 20.559 10.777 20.559C11.8302 20.559 12.8481 20.3873 13.8179 20.064C13.8609 20.2736 13.9417 20.4782 14.0857 20.6777C14.4468 21.1778 15.1364 21.2233 15.5935 20.9758C17.0028 20.2155 19.3896 20.7131 20.453 21.0819C20.9051 21.2385 21.3748 21.3167 21.8396 21.3167C22.6427 21.3167 23.4333 21.0869 24.095 20.6399C24.3198 20.4908 24.5294 20.3166 24.7189 20.1246C25.4766 19.3593 25.9413 18.2809 25.9943 17.167C26.0524 15.9951 25.661 14.9343 24.8982 14.1791ZM1.80065 10.777C1.80065 5.82409 5.82662 1.7956 10.777 1.7956C15.7299 1.7956 19.7584 5.82409 19.7584 10.777C19.7584 11.1255 19.7306 11.4716 19.6902 11.8176C19.2659 11.6231 18.7532 11.6862 18.4071 12.0373L18.1192 12.3278C17.998 12.4515 17.9071 12.5955 17.8515 12.7546C17.753 12.7268 17.6444 12.7167 17.5433 12.7142C17.2377 12.7167 16.9498 12.8354 16.7351 13.0552L16.4472 13.3456C16.3638 13.4315 16.2957 13.5275 16.2426 13.6285L15.0278 12.4263C14.5782 11.9818 13.8508 11.9868 13.4062 12.4339L13.1183 12.7243C12.6738 13.1739 12.6788 13.9013 13.1284 14.3458L16.2957 17.4726C15.3839 17.7429 14.313 18.3566 13.9341 19.1446C13.9291 19.1547 13.9291 19.1649 13.924 19.175C12.9314 19.5538 11.8757 19.7533 10.782 19.7533C5.82662 19.7584 1.80065 15.7299 1.80065 10.777ZM24.1506 19.5589C23.999 19.7129 23.8298 19.8518 23.6505 19.9731C22.812 20.5388 21.7133 20.6702 20.7156 20.3242C19.963 20.0615 18.7405 19.7761 17.5282 19.7761C16.7023 19.7761 15.8814 19.9074 15.2147 20.2686C15.0682 20.3494 14.8307 20.3393 14.7348 20.2054C14.558 19.9604 14.5327 19.7432 14.6514 19.4957C14.9873 18.7961 16.283 18.2127 17.0382 18.1318C17.1594 18.1773 17.2908 18.1697 17.4272 18.0308C17.4297 18.0283 17.6898 17.758 17.4196 17.4625C17.4171 17.46 17.412 17.4575 17.407 17.4499C17.4044 17.4474 17.4019 17.4448 17.3969 17.4398C17.3943 17.4373 17.3918 17.4347 17.3868 17.4322C17.018 17.0685 13.6866 13.7801 13.6866 13.7801C13.5502 13.6462 13.5502 13.4265 13.6841 13.2926L13.972 13.0021C14.1059 12.8683 14.3256 12.8657 14.4595 12.9996L16.4497 14.9697C16.6063 15.1237 16.8589 15.1237 17.0155 14.9671C17.1721 14.8105 17.1695 14.5554 17.013 14.4014C16.8791 14.2675 16.8766 14.0478 17.0104 13.9139L17.2984 13.6235C17.364 13.5578 17.4499 13.5224 17.5408 13.5199C17.6368 13.5174 17.7201 13.5553 17.7858 13.6209L18.1217 13.9518C18.2783 14.1059 18.5334 14.1059 18.6875 13.9493C18.8441 13.7927 18.8416 13.5376 18.685 13.3835C18.6193 13.3179 18.5839 13.232 18.5839 13.1411C18.5839 13.0476 18.6193 12.9617 18.6824 12.8961L18.9704 12.6056C19.1042 12.4692 19.324 12.4692 19.4578 12.6031L20.1473 13.285C20.3039 13.4416 20.559 13.4391 20.7131 13.2825C20.8697 13.1259 20.8672 12.8708 20.7106 12.7167C20.5767 12.5829 20.5742 12.3631 20.7081 12.2293L20.996 11.9388C21.0617 11.8731 21.1475 11.8353 21.2385 11.8353C21.2385 11.8353 21.2385 11.8353 21.241 11.8353C21.3319 11.8353 21.4178 11.8706 21.4834 11.9363L24.335 14.7474C24.9361 15.3409 25.2417 16.1845 25.1962 17.1266C25.1508 18.046 24.7694 18.9325 24.1506 19.5589Z" fill="#1269B3" stroke="#1269B3" stroke-width="0.5"/>
<path d="M12.656 15.7398L12.4035 15.6135C12.3858 15.606 12.3757 15.5883 12.3757 15.5706V8.77646C12.3757 8.30667 11.9943 7.92529 11.5245 7.92529H9.27411C8.87253 7.92529 8.53913 8.18797 8.44568 8.57945C8.35223 8.97093 8.53408 9.35484 8.89273 9.53417L9.14278 9.66045C9.16046 9.66803 9.17056 9.68571 9.17056 9.70591V16.4975C9.17056 16.9673 9.55194 17.3487 10.0217 17.3487H12.2721C12.6737 17.3487 13.0071 17.086 13.1006 16.6945C13.1965 16.303 13.0172 15.9191 12.656 15.7398ZM12.2772 16.5506H10.0268C9.99899 16.5506 9.97626 16.5278 9.97626 16.5001V9.70844C9.97626 9.38515 9.79693 9.09217 9.50648 8.9482L9.25391 8.82192C9.23875 8.81434 9.21855 8.80424 9.22865 8.76635C9.23875 8.72847 9.25896 8.72847 9.27664 8.72847H11.527C11.5548 8.72847 11.5776 8.7512 11.5776 8.77898V15.5706C11.5776 15.8939 11.7569 16.1869 12.0473 16.3308L12.2974 16.4571C12.3125 16.4647 12.3327 16.4748 12.3226 16.5127C12.3151 16.5506 12.2949 16.5506 12.2772 16.5506Z" fill="#1269B3" stroke="#1269B3" stroke-width="0.5"/>
<path d="M10.777 7.55928C11.7948 7.55928 12.6232 6.73085 12.6232 5.71299C12.6232 4.69513 11.7948 3.8667 10.777 3.8667C9.75909 3.8667 8.93066 4.69513 8.93066 5.71299C8.93066 6.73085 9.75909 7.55928 10.777 7.55928ZM10.777 4.66987C11.3528 4.66987 11.8226 5.13965 11.8226 5.71551C11.8226 6.29137 11.3528 6.76115 10.777 6.76115C10.2011 6.76115 9.73131 6.29137 9.73131 5.71551C9.73131 5.13713 10.2011 4.66987 10.777 4.66987Z" fill="#1269B3" stroke="#1269B3" stroke-width="0.5"/>
</svg>
