<svg width="15" height="15" viewBox="0 0 15 15" fill="none" xmlns="http://www.w3.org/2000/svg">
<path d="M7.08838 6.15234C6.60293 6.15234 6.20801 6.54727 6.20801 7.03271C6.20801 7.51811 6.60293 7.91303 7.08838 7.91303C7.57383 7.91303 7.96875 7.51816 7.96875 7.03271C7.96875 6.54727 7.57383 6.15234 7.08838 6.15234Z" fill="white"/>
<path d="M7.02979 0.00292969C3.15357 0.00292969 0 3.1565 0 7.03272C0 10.9089 3.15357 14.0625 7.02979 14.0625C10.906 14.0625 14.0596 10.909 14.0596 7.03272C14.0596 3.15645 10.906 0.00292969 7.02979 0.00292969ZM10.6025 7.91162H9.57545C9.54416 7.99986 9.50865 8.08617 9.46852 8.16984L9.8056 8.50699C10.1488 8.85023 10.1488 9.4067 9.8056 9.74994C9.46236 10.0932 8.90584 10.0932 8.56266 9.74994L8.22557 9.41285C8.14189 9.45299 8.05559 9.4885 7.96729 9.51979V10.5469C7.96729 11.0323 7.57377 11.4258 7.08838 11.4258C6.60299 11.4258 6.20947 11.0323 6.20947 10.5469V9.51979C6.12117 9.4885 6.03486 9.45299 5.95119 9.41285L5.6141 9.74994C5.27086 10.0932 4.71439 10.0932 4.37115 9.74994C4.02791 9.40676 4.02791 8.85023 4.37115 8.50699L4.70824 8.1699C4.66811 8.08623 4.6326 7.99992 4.60131 7.91162H3.57422C3.08883 7.91162 2.69531 7.51811 2.69531 7.03272C2.69531 6.54732 3.08883 6.15381 3.57422 6.15381H4.60131C4.6326 6.06551 4.66811 5.9792 4.70824 5.89553L4.37109 5.55838C4.02785 5.2152 4.02785 4.65867 4.37109 4.31543C4.71428 3.97225 5.2708 3.97225 5.61404 4.31543L5.95119 4.65252C6.03492 4.61238 6.12117 4.57688 6.20947 4.54559V3.51855C6.20947 3.03316 6.60299 2.63965 7.08838 2.63965C7.57377 2.63965 7.96729 3.03316 7.96729 3.51855V4.54565C8.05559 4.57693 8.14189 4.61244 8.22557 4.65258L8.56266 4.31549C8.9059 3.97225 9.46242 3.97225 9.8056 4.31549C10.1488 4.65873 10.1488 5.2152 9.8056 5.55844L9.46852 5.89553C9.50865 5.9792 9.54416 6.06551 9.57545 6.15381H10.6025C11.0879 6.15381 11.4814 6.54732 11.4814 7.03272C11.4814 7.51811 11.0879 7.91162 10.6025 7.91162Z" fill="white"/>
</svg>
