<svg width="16" height="21" viewBox="0 0 16 21" fill="none" xmlns="http://www.w3.org/2000/svg">
<path fill-rule="evenodd" clip-rule="evenodd" d="M5.35209 17.3266H1.03385C0.656149 17.3266 0.349609 17.02 0.349609 16.6423C0.349609 16.2646 0.656149 15.9581 1.03385 15.9581H1.83578C1.75846 15.7405 1.71809 15.5092 1.71809 15.2738V9.79991C1.71809 7.35717 3.14336 5.24492 5.20703 4.24935C5.16256 4.05434 5.13929 3.85044 5.13929 3.64175C5.13929 2.13094 6.36545 0.904785 7.87625 0.904785C9.38706 0.904785 10.6132 2.13094 10.6132 3.64175C10.6132 3.85044 10.59 4.05434 10.5455 4.24935C12.6091 5.24492 14.0344 7.35717 14.0344 9.79991V15.2738C14.0344 15.5092 13.994 15.7405 13.9167 15.9581H14.7187C15.0964 15.9581 15.4029 16.2646 15.4029 16.6423C15.4029 17.02 15.0964 17.3266 14.7187 17.3266H10.4004C10.4059 17.3943 10.4086 17.462 10.4086 17.5312C10.4086 18.9291 9.27416 20.0635 7.87625 20.0635C6.47835 20.0635 5.34388 18.9291 5.34388 17.5312C5.34388 17.462 5.34661 17.3943 5.35209 17.3266ZM6.51598 3.79297C6.9539 3.69375 7.40892 3.64175 7.87625 3.64175C8.34359 3.64175 8.79861 3.69375 9.23652 3.79297C9.242 3.74302 9.24473 3.69306 9.24473 3.64175C9.24473 2.88635 8.63165 2.27327 7.87625 2.27327C7.12085 2.27327 6.50777 2.88635 6.50777 3.64175C6.50777 3.69306 6.51051 3.74302 6.51598 3.79297ZM6.73015 17.3266C6.71852 17.3929 6.71236 17.4614 6.71236 17.5312C6.71236 18.1737 7.23375 18.695 7.87625 18.695C8.51875 18.695 9.04014 18.1737 9.04014 17.5312C9.04014 17.4614 9.03399 17.3929 9.02236 17.3266H6.73015Z" fill="white"/>
</svg>
