<svg width="27" height="19" viewBox="0 0 27 19" fill="none" xmlns="http://www.w3.org/2000/svg">
<path d="M25.9422 8.45441C25.8952 8.38301 25.8218 8.3332 25.7381 8.31591C25.6544 8.29861 25.5673 8.31526 25.4958 8.36218L23.9681 9.36536L19.1022 1.98831L20.6298 0.985695C20.6657 0.962636 20.6967 0.932685 20.7209 0.897577C20.7452 0.862469 20.7622 0.822901 20.771 0.781166C20.7799 0.739431 20.7803 0.696357 20.7724 0.654439C20.7645 0.612521 20.7483 0.572592 20.7249 0.536965C20.7014 0.501337 20.6711 0.470719 20.6357 0.446883C20.6003 0.423047 20.5606 0.406468 20.5187 0.398104C20.4769 0.389741 20.4338 0.38976 20.392 0.39816C20.3502 0.406561 20.3104 0.423176 20.2751 0.447043L18.4798 1.62733C18.4084 1.67433 18.3586 1.74775 18.3413 1.83145C18.324 1.91516 18.3406 2.00231 18.3875 2.07375L18.6071 2.40701L16.3914 3.73045C16.0377 3.67387 15.6897 3.60427 15.3525 3.53524C14.1824 3.29647 13.173 3.08938 12.4669 3.65633C12.0895 3.95847 11.6538 4.47845 11.2877 4.96109L7.99301 2.99319L8.59899 2.07375C8.64592 2.00231 8.66256 1.91516 8.64527 1.83145C8.62797 1.74775 8.57816 1.67433 8.50677 1.62733L6.71145 0.447043C6.67609 0.423176 6.63635 0.406561 6.59452 0.39816C6.5527 0.38976 6.50962 0.389741 6.46779 0.398104C6.42595 0.406468 6.3862 0.423047 6.35081 0.446883C6.31543 0.470719 6.28513 0.501337 6.26167 0.536965C6.2382 0.572592 6.22204 0.612521 6.21412 0.654439C6.20619 0.696357 6.20666 0.739431 6.2155 0.781166C6.22433 0.822901 6.24136 0.862469 6.2656 0.897577C6.28983 0.932685 6.32079 0.962636 6.35668 0.985695L7.88438 1.98831L3.0184 9.36536L1.49071 8.36218C1.4193 8.31853 1.33372 8.30436 1.25205 8.32264C1.17038 8.34093 1.09902 8.39024 1.05304 8.46017C1.00706 8.53009 0.99006 8.61516 1.00564 8.69738C1.02121 8.77961 1.06814 8.85256 1.13651 8.90083L2.93239 10.0811C2.9677 10.1044 3.00726 10.1205 3.0488 10.1285C3.09034 10.1364 3.13305 10.1361 3.17447 10.1276C3.21589 10.119 3.25522 10.1023 3.29019 10.0785C3.32516 10.0547 3.35508 10.0243 3.37825 9.98889L3.96783 9.09547L5.12887 9.78859C5.10511 10.2673 5.06324 11.4481 6.16091 12.3783C6.05311 12.6054 6.00241 12.8554 6.01324 13.1065C6.01785 13.2874 6.06233 13.465 6.14351 13.6266C6.22469 13.7883 6.34057 13.9301 6.48286 14.0418C6.69405 14.2029 6.95283 14.2891 7.21842 14.2868C7.29713 14.2868 7.37569 14.2799 7.45323 14.2664C7.44643 14.3367 7.44473 14.4075 7.44813 14.478C7.4526 14.6588 7.49697 14.8363 7.57806 14.9979C7.65915 15.1595 7.77496 15.3011 7.91719 15.4128C8.12807 15.5745 8.38697 15.6612 8.65275 15.6589C8.74976 15.6587 8.84649 15.6483 8.94131 15.6278C9.01549 15.612 9.08832 15.5904 9.15915 15.5633C9.17968 15.7289 9.23273 15.8888 9.31527 16.0339C9.3978 16.179 9.50819 16.3063 9.64009 16.4086C9.8598 16.5781 10.1298 16.6693 10.4073 16.6677C10.4832 16.6677 10.5589 16.6613 10.6337 16.6485C10.7507 16.6286 10.8648 16.594 10.9731 16.5455C11.0462 16.8377 11.2143 17.0973 11.451 17.2835C11.6877 17.4697 11.9796 17.572 12.2807 17.5742C12.3226 17.5742 12.3645 17.5742 12.4063 17.5685C12.5706 17.5547 12.7303 17.5075 12.8756 17.4296C13.0209 17.3518 13.1487 17.245 13.2511 17.1158L14.484 17.9482C14.805 18.1594 15.1794 18.2752 15.5636 18.282C15.589 18.282 15.6151 18.282 15.64 18.282C16.0587 18.2622 16.41 18.0772 16.6018 17.7728C16.7919 17.4906 16.8682 17.1469 16.8151 16.8109C16.8063 16.7626 16.7944 16.715 16.7795 16.6683C16.8248 16.6683 16.87 16.6621 16.9147 16.6564C17.1189 16.6357 17.3159 16.5692 17.4907 16.4617C17.6656 16.3542 17.814 16.2086 17.9247 16.0358C18.0354 15.8629 18.1056 15.6673 18.1301 15.4635C18.1546 15.2597 18.1328 15.053 18.0662 14.8588C18.0599 14.839 18.0531 14.8192 18.0464 14.8022H18.065C18.1407 14.8025 18.2164 14.7974 18.2913 14.787C18.4955 14.7662 18.6922 14.6996 18.867 14.5921C19.0417 14.4846 19.19 14.3391 19.3006 14.1663C19.4113 13.9935 19.4815 13.798 19.506 13.5943C19.5305 13.3906 19.5087 13.184 19.4422 12.99C19.4269 12.939 19.4088 12.8892 19.389 12.84C19.7341 12.8137 20.0592 12.6681 20.3085 12.4281C20.4182 12.317 20.5133 12.1922 20.5914 12.0569L20.6033 12.0326C20.8415 11.5087 20.696 11.0322 20.4233 10.6543C20.7419 10.2842 21.3631 9.53454 21.6013 9.04907L22.5926 8.45667L23.6111 9.99681C23.6343 10.0322 23.6642 10.0627 23.6992 10.0865C23.7341 10.1103 23.7735 10.1269 23.8149 10.1355C23.8563 10.1441 23.899 10.1444 23.9406 10.1364C23.9821 10.1284 24.0217 10.1123 24.057 10.089L25.8529 8.90875C25.8891 8.88529 25.9203 8.85477 25.9446 8.819C25.9688 8.78323 25.9856 8.74294 25.9939 8.70055C26.0023 8.65815 26.002 8.61451 25.9931 8.57222C25.9842 8.52993 25.9669 8.48987 25.9422 8.45441ZM6.8744 13.5309C6.80681 13.4756 6.75217 13.4061 6.71434 13.3274C6.6765 13.2487 6.6564 13.1627 6.65543 13.0754C6.64876 12.853 6.72114 12.6355 6.85969 12.4615L7.36892 11.7961C7.4504 11.6863 7.5556 11.5963 7.67669 11.5328C7.79777 11.4694 7.93162 11.434 8.06826 11.4294C8.19196 11.428 8.31262 11.4678 8.41115 11.5426C8.47837 11.5976 8.5328 11.6666 8.57062 11.7448C8.60844 11.8229 8.62874 11.9084 8.63011 11.9953C8.63688 12.2176 8.5645 12.4352 8.42586 12.6092L7.91663 13.2746C7.63655 13.6321 7.16183 13.7493 6.8744 13.5309ZM8.80721 14.9975C8.72277 15.0214 8.63389 15.0253 8.54769 15.0087C8.46149 14.9921 8.38037 14.9556 8.31084 14.902C8.24131 14.8484 8.1853 14.7793 8.1473 14.7002C8.1093 14.621 8.09037 14.5341 8.09203 14.4464C8.08525 14.2242 8.15764 14.0068 8.29629 13.833L8.80834 13.1676C8.94123 12.9892 9.1331 12.8637 9.34983 12.8134C9.39968 12.8028 9.45049 12.7973 9.50146 12.797C9.62571 12.7954 9.74695 12.8352 9.84604 12.9102C9.91334 12.9651 9.96778 13.034 10.0055 13.1122C10.0433 13.1904 10.0634 13.276 10.0644 13.3628C10.0713 13.56 10.0148 13.7541 9.90319 13.9168L9.44771 14.5086C9.42961 14.5318 9.41263 14.5556 9.39622 14.5799L9.34813 14.6421C9.216 14.8205 9.02498 14.9464 8.80891 14.9975H8.80721ZM10.5261 16.0125C10.4407 16.0291 10.3528 16.0276 10.268 16.0081C10.1832 15.9886 10.1035 15.9516 10.0339 15.8994C9.75891 15.6877 9.71534 15.277 9.92073 14.959L10.3734 14.3751C10.3926 14.3496 10.4113 14.3241 10.43 14.2981C10.5486 14.1412 10.7223 14.0351 10.916 14.0011C10.9545 13.9946 10.9935 13.9913 11.0326 13.9914C11.1683 13.99 11.3007 14.0338 11.4088 14.1159C11.6985 14.3394 11.7319 14.7847 11.4824 15.1089L11.0127 15.7189C10.8935 15.8747 10.7196 15.9796 10.5261 16.0125ZM12.3452 16.9263C12.1694 16.9419 11.9943 16.8902 11.8552 16.7815C11.565 16.558 11.4931 16.163 11.6951 15.9011L12.1019 15.372C12.1571 15.3022 12.2278 15.2461 12.3082 15.2081C12.3887 15.1702 12.4769 15.1513 12.5659 15.153C12.7213 15.1542 12.8719 15.2067 12.9942 15.3024C13.1351 15.4087 13.23 15.5647 13.2596 15.7387C13.2738 15.8158 13.2719 15.8951 13.2539 15.9715C13.2359 16.0478 13.2022 16.1196 13.1549 16.1823L12.7475 16.7107C12.699 16.7723 12.6381 16.8231 12.5689 16.8599C12.4996 16.8968 12.4235 16.9188 12.3452 16.9246V16.9263ZM20.0233 11.7463C19.9784 11.8229 19.9247 11.8939 19.8632 11.9579C19.5803 12.2312 19.1457 12.2657 18.7825 12.0677C18.7491 12.0433 18.7157 12.0196 18.6806 11.997C18.6681 11.9891 18.6551 11.9821 18.6416 11.976C18.624 11.963 18.6065 11.95 18.5895 11.9353C18.5766 11.924 18.5628 11.9138 18.5482 11.9047L17.3278 11.1533C17.2549 11.1083 17.1672 11.0941 17.0838 11.1138C17.0005 11.1334 16.9283 11.1854 16.8833 11.2583C16.8383 11.3311 16.8241 11.4189 16.8438 11.5022C16.8634 11.5856 16.9154 11.6577 16.9883 11.7027L18.1906 12.4394C18.2678 12.5028 18.3501 12.5595 18.4368 12.6092C18.6212 12.751 18.7581 12.9456 18.8294 13.1671C18.8687 13.2718 18.883 13.3844 18.8711 13.4956C18.8593 13.6069 18.8217 13.7139 18.7613 13.8081C18.7009 13.9023 18.6193 13.9811 18.5231 14.0383C18.4269 14.0955 18.3187 14.1294 18.207 14.1374C17.9423 14.1701 17.6744 14.1101 17.4489 13.9677C17.4023 13.9311 17.354 13.8969 17.304 13.8653C17.2924 13.8577 17.2803 13.8509 17.2678 13.8449L16.1067 13.0528C16.0361 13.0053 15.9495 12.9878 15.8659 13.004C15.7823 13.0201 15.7085 13.0686 15.6606 13.139C15.6127 13.2093 15.5945 13.2958 15.61 13.3794C15.6255 13.4631 15.6735 13.5373 15.7435 13.5858L17.0754 14.4939C17.2522 14.6343 17.3832 14.8242 17.4517 15.0393C17.4916 15.144 17.5064 15.2566 17.4951 15.368C17.4838 15.4795 17.4466 15.5868 17.3864 15.6813C17.3263 15.7758 17.2449 15.855 17.1488 15.9125C17.0527 15.97 16.9444 16.0043 16.8327 16.0125C16.5619 16.0456 16.2881 15.9819 16.0598 15.8326L14.5129 14.7774C14.4422 14.7299 14.3556 14.7124 14.272 14.7285C14.1884 14.7447 14.1146 14.7932 14.0667 14.8636C14.0188 14.9339 14.0006 15.0203 14.0161 15.104C14.0316 15.1877 14.0796 15.2619 14.1496 15.3103L15.7011 16.369C15.7226 16.3831 15.7452 16.3967 15.7673 16.4097C15.7782 16.4191 15.7898 16.4278 15.8018 16.4357C16.0213 16.5761 16.1492 16.739 16.182 16.9206C16.2052 17.0968 16.1616 17.2752 16.0598 17.4208C15.9506 17.5906 15.7305 17.6262 15.6071 17.6319C15.333 17.6355 15.0641 17.5567 14.8354 17.4055L13.6426 16.6004L13.6624 16.5744C13.764 16.4419 13.8369 16.2899 13.8767 16.1278C13.9164 15.9658 13.9221 15.7972 13.8933 15.6329C13.8626 15.4541 13.7964 15.2834 13.6984 15.1309C13.6004 14.9783 13.4727 14.847 13.3229 14.7448C13.1732 14.6426 13.0044 14.5716 12.8266 14.536C12.6488 14.5003 12.4657 14.5008 12.2881 14.5374C12.2798 14.3583 12.2333 14.1831 12.1516 14.0234C12.07 13.8638 11.9551 13.7235 11.8147 13.6119C11.6744 13.5004 11.5117 13.4202 11.3378 13.3767C11.1638 13.3333 10.9826 13.3276 10.8062 13.36C10.7734 13.3657 10.7412 13.3724 10.7089 13.3804C10.7089 13.3645 10.7089 13.3487 10.7089 13.3328C10.7062 13.1562 10.6646 12.9823 10.5871 12.8236C10.5096 12.6649 10.398 12.5252 10.2604 12.4145C10.1227 12.3038 9.96236 12.2248 9.7907 12.1832C9.61904 12.1415 9.4403 12.1382 9.26722 12.1735C9.27399 12.1032 9.2757 12.0324 9.27231 11.9619C9.2677 11.781 9.22322 11.6034 9.14204 11.4417C9.06085 11.2801 8.94498 11.1383 8.80269 11.0266C8.23122 10.5864 7.36043 10.755 6.86082 11.4029L6.52134 11.8414C5.70487 11.1126 5.74844 10.2367 5.76994 9.80047C5.77541 9.72516 5.77655 9.64959 5.77333 9.57415C5.76826 9.51299 5.74588 9.45455 5.70881 9.40565C5.67173 9.35675 5.6215 9.31942 5.56398 9.29803L4.3192 8.55512L7.63316 3.53015L10.9002 5.4822C10.6851 5.78604 10.5335 6.01802 10.495 6.07687C10.1397 6.53744 9.70289 7.57231 10.5516 8.28353C10.8306 8.51665 11.1242 8.63434 11.4281 8.63434C11.499 8.63425 11.5698 8.628 11.6397 8.61566C12.201 8.51665 12.7436 8.02156 13.2534 7.14455L13.3807 6.96519L19.2227 10.4545C19.4115 10.5597 19.5857 10.689 19.741 10.8393C19.7531 10.8549 19.7666 10.8695 19.7811 10.8829L19.7896 10.8897C20.0058 11.1171 20.1642 11.4176 20.0233 11.7446V11.7463ZM21.1849 8.54098C21.1243 8.57731 21.0774 8.63259 21.0514 8.69827C20.9139 9.04115 20.3452 9.74729 19.9763 10.1813C19.8414 10.0713 19.6961 9.97487 19.5424 9.89327L13.4593 6.25849H13.4559C13.4508 6.2551 13.4452 6.25284 13.4401 6.25001L13.4271 6.24322L13.4107 6.23699L13.3971 6.23133L13.3812 6.22398L13.3654 6.22002H13.3529L13.3337 6.21719H13.3241H13.3026H13.2681H13.2437H13.237L13.2115 6.22398H13.2041L13.1821 6.23133L13.1736 6.23473L13.1538 6.24322L13.1447 6.24831L13.1266 6.25793L13.117 6.26472L13.1006 6.27547L13.091 6.28395C13.0859 6.28743 13.0811 6.29142 13.0768 6.29584L13.0666 6.30546L13.0542 6.31847L13.044 6.33035L13.0338 6.34336V6.34676L12.7255 6.7813C12.7198 6.78979 12.7141 6.79771 12.709 6.80676C12.309 7.49932 11.892 7.91519 11.5344 7.97799C11.35 8.01138 11.1655 7.94857 10.9726 7.78675C10.3954 7.30298 10.9539 6.54706 11.019 6.46332C11.0252 6.45539 11.0309 6.44747 11.0365 6.43899C11.0422 6.4305 11.2628 6.09328 11.5667 5.66892C11.6096 5.64239 11.6455 5.6059 11.6714 5.56254C11.6872 5.53638 11.6991 5.50795 11.7064 5.47824C12.0663 4.9939 12.5093 4.44846 12.872 4.1582C13.3439 3.77967 14.2175 3.95847 15.2286 4.16556C15.6111 4.24364 16.0066 4.32455 16.4168 4.38396C16.498 4.39532 16.5804 4.37506 16.6471 4.32738L18.9669 2.94227L22.2407 7.9067L21.1849 8.54098Z" fill="#1269B3" stroke="#1269B3" stroke-width="0.5"/>
</svg>
