<svg width="35" height="35" viewBox="0 0 35 35" fill="none" xmlns="http://www.w3.org/2000/svg">
<path fill-rule="evenodd" clip-rule="evenodd" d="M9.79496 4.89216H25.0312C25.3287 4.89216 25.5703 4.65081 25.5703 4.35331C25.5703 4.05581 25.3287 3.81421 25.0312 3.81421H9.79496C9.49746 3.81421 9.25586 4.05581 9.25586 4.35331C9.25586 4.65081 9.49746 4.89216 9.79496 4.89216ZM9.79496 7.06895H25.0312C25.3287 7.06895 25.5703 6.82734 25.5703 6.52984C25.5703 6.23234 25.3287 5.99074 25.0312 5.99074H9.79496C9.49746 5.99074 9.25586 6.23234 9.25586 6.52984C9.25586 6.82734 9.49746 7.06895 9.79496 7.06895ZM24.4819 27.2182C24.4819 23.5425 21.5022 20.5628 17.8264 20.5628C17.4448 20.5628 17.0606 20.5628 16.6793 20.5628C13.0032 20.5628 10.0235 23.5425 10.0235 27.2182C10.0235 29.9866 10.0235 32.6492 10.0235 32.6492C10.0235 32.947 10.2649 33.1884 10.5626 33.1884H23.9431C24.2406 33.1884 24.4819 32.947 24.4819 32.6492V27.2182ZM23.404 27.2182C23.404 24.138 20.9067 21.6407 17.8264 21.6407C17.4448 21.6407 17.0606 21.6407 16.6793 21.6407C13.5987 21.6407 11.1015 24.138 11.1015 27.2182V32.1101H23.404V27.2182Z" fill="black"/>
<path fill-rule="evenodd" clip-rule="evenodd" d="M23.4038 32.1102V27.2183C23.4038 25.6986 22.796 24.3206 21.8102 23.315C21.6049 23.1055 21.6047 22.7706 21.8095 22.5609C23.0141 21.3278 24.6951 20.5628 26.5548 20.5628C30.2183 20.5628 33.1884 23.5325 33.1884 27.1963V32.6493C33.1884 32.947 32.947 33.1884 32.6493 33.1884H20.4601V32.1102H23.4038ZM32.1102 32.1102V27.1963C32.1102 24.1281 29.6231 21.6407 26.5548 21.6407C25.1789 21.6407 23.9199 22.1409 22.9493 22.9697C23.9063 24.1223 24.4817 25.603 24.4817 27.2183V32.1102H32.1102ZM14.3657 33.1884H2.17654C1.87904 33.1884 1.6377 32.947 1.6377 32.6493C1.6377 32.6493 1.6377 29.9723 1.6377 27.1963C1.6377 23.5325 4.60747 20.5628 8.27124 20.5628C10.0429 20.5628 11.6524 21.2573 12.8421 22.389C12.9492 22.4909 13.0098 22.6322 13.0096 22.78C13.0096 22.9276 12.9487 23.0689 12.8416 23.1708C11.7699 24.1868 11.1013 25.6244 11.1013 27.2183V32.1102H14.3657V33.1884ZM11.6877 22.8156C10.7455 22.0793 9.55945 21.6407 8.27124 21.6407C5.20299 21.6407 2.71564 24.1281 2.71564 27.1963V32.1102H10.0233V27.2183C10.0233 25.5302 10.652 23.9886 11.6877 22.8156ZM17.413 10.5846C15.0795 10.5846 13.1851 12.4791 13.1851 14.8126C13.1851 17.1458 15.0795 19.0403 17.413 19.0403C19.7463 19.0403 21.6407 17.1458 21.6407 14.8126C21.6407 12.4791 19.7463 10.5846 17.413 10.5846ZM17.413 11.6626C19.1513 11.6626 20.5628 13.0741 20.5628 14.8126C20.5628 16.5508 19.1513 17.9623 17.413 17.9623C15.6745 17.9623 14.2633 16.5508 14.2633 14.8126C14.2633 13.0741 15.6745 11.6626 17.413 11.6626ZM27.2078 10.5846C24.8743 10.5846 22.9799 12.4791 22.9799 14.8126C22.9799 17.1458 24.8743 19.0403 27.2078 19.0403C29.5411 19.0403 31.4355 17.1458 31.4355 14.8126C31.4355 12.4791 29.5411 10.5846 27.2078 10.5846ZM27.2078 11.6626C28.9461 11.6626 30.3575 13.0741 30.3575 14.8126C30.3575 16.5508 28.9461 17.9623 27.2078 17.9623C25.4693 17.9623 24.0581 16.5508 24.0581 14.8126C24.0581 13.0741 25.4693 11.6626 27.2078 11.6626ZM7.61825 10.5846C5.28475 10.5846 3.39031 12.4791 3.39031 14.8126C3.39031 17.1458 5.28475 19.0403 7.61825 19.0403C9.9515 19.0403 11.8459 17.1458 11.8459 14.8126C11.8459 12.4791 9.9515 10.5846 7.61825 10.5846ZM7.61825 11.6626C9.3565 11.6626 10.768 13.0741 10.768 14.8126C10.768 16.5508 9.3565 17.9623 7.61825 17.9623C5.87975 17.9623 4.46852 16.5508 4.46852 14.8126C4.46852 13.0741 5.87975 11.6626 7.61825 11.6626ZM28.7444 1.87773C28.6446 1.72755 28.4762 1.6377 28.2959 1.6377H6.52986C6.34964 1.6377 6.18143 1.72755 6.08139 1.87773L3.90486 5.14266C3.78393 5.32366 3.78393 5.55952 3.90486 5.74053L6.08139 9.00546C6.18143 9.15538 6.34964 9.24549 6.52986 9.24549H28.2959C28.4762 9.24549 28.6446 9.15538 28.7444 9.00546L30.9212 5.74053C31.0419 5.55952 31.0419 5.32366 30.9212 5.14266L28.7444 1.87773ZM6.81822 2.71564L5.00109 5.44146L6.81822 8.16755H28.0076L29.8247 5.44146L28.0076 2.71564H6.81822Z" fill="black"/>
</svg>
