<svg width="35" height="35" viewBox="0 0 35 35" fill="none" xmlns="http://www.w3.org/2000/svg">
<g clip-path="url(#clip0_2730_100)">
<path d="M30.6213 9.1665H26.1047C25.956 9.1665 25.833 9.04346 25.833 8.89479V4.37816C25.833 4.22949 25.956 4.10645 26.1047 4.10645C26.1816 4.10645 26.2483 4.13721 26.2995 4.18847L30.8162 8.7051C30.9238 8.81276 30.9238 8.98707 30.8162 9.0896C30.7649 9.14087 30.6931 9.17163 30.6213 9.17163V9.1665ZM26.3764 8.61794H29.96L26.3764 5.03438V8.61794Z" fill="#1A1A1A" stroke="black" stroke-width="0.5"/>
<path d="M4.37303 4.10132H26.1051C26.182 4.10132 26.2487 4.13208 26.2999 4.18335L30.8166 8.69997C30.8678 8.75124 30.8986 8.82301 30.8986 8.89479V30.6269C30.8986 30.7756 30.7756 30.8986 30.6269 30.8986H4.37816C4.22949 30.8986 4.10645 30.7756 4.10645 30.6269V4.37816C4.10645 4.22949 4.22949 4.10645 4.37816 4.10645L4.37303 4.10132ZM25.9872 4.64988H4.64475V30.35H30.3449V9.00757L25.9872 4.64988Z" fill="#1A1A1A" stroke="black"/>
<path d="M8.20238 11.6478C8.0537 11.6478 7.93066 11.5248 7.93066 11.3761C7.93066 11.2274 8.0537 11.1044 8.20238 11.1044H26.7969C26.9456 11.1044 27.0686 11.2274 27.0686 11.3761C27.0686 11.5248 26.9456 11.6478 26.7969 11.6478H8.20238ZM8.20238 9.0947C8.0537 9.0947 7.93066 8.97166 7.93066 8.82298C7.93066 8.67431 8.0537 8.55127 8.20238 8.55127H17.4971C17.6458 8.55127 17.7688 8.67431 17.7688 8.82298C17.7688 8.97166 17.6458 9.0947 17.4971 9.0947H8.20238ZM8.20238 14.206C8.0537 14.206 7.93066 14.083 7.93066 13.9343C7.93066 13.7856 8.0537 13.6626 8.20238 13.6626H26.7969C26.9456 13.6626 27.0686 13.7856 27.0686 13.9343C27.0686 14.083 26.9456 14.206 26.7969 14.206H8.20238ZM8.20238 16.7591C8.0537 16.7591 7.93066 16.6361 7.93066 16.4874C7.93066 16.3387 8.0537 16.2157 8.20238 16.2157H26.7969C26.9456 16.2157 27.0686 16.3387 27.0686 16.4874C27.0686 16.6361 26.9456 16.7591 26.7969 16.7591H8.20238ZM8.20238 25.7667C8.0537 25.7667 7.93066 25.6437 7.93066 25.495C7.93066 25.3463 8.0537 25.2233 8.20238 25.2233H16.1078C16.2564 25.2233 16.3795 25.3463 16.3795 25.495C16.3795 25.6437 16.2564 25.7667 16.1078 25.7667H8.20238ZM18.8659 25.7667C18.7172 25.7667 18.5942 25.6437 18.5942 25.495C18.5942 25.3463 18.7172 25.2233 18.8659 25.2233H26.7713C26.92 25.2233 27.043 25.3463 27.043 25.495C27.043 25.6437 26.92 25.7667 26.7713 25.7667H18.8659ZM8.20238 28.3198C8.0537 28.3198 7.93066 28.1968 7.93066 28.0481C7.93066 27.8994 8.0537 27.7764 8.20238 27.7764H11.9244C12.073 27.7764 12.1961 27.8994 12.1961 28.0481C12.1961 28.1968 12.073 28.3198 11.9244 28.3198H8.20238ZM8.44846 18.7688H16.4051C16.5538 18.7688 16.6768 18.8918 16.6768 19.0405V22.9368C16.6768 23.0855 16.5538 23.2085 16.4051 23.2085H8.44846C8.29979 23.2085 8.17675 23.0855 8.17675 22.9368V19.0405C8.17675 18.8918 8.29979 18.7688 8.44846 18.7688ZM16.1334 19.3173H8.72018V22.6651H16.1334V19.3173ZM18.8352 18.7688H26.7918C26.9405 18.7688 27.0635 18.8918 27.0635 19.0405V22.9368C27.0635 23.0855 26.9405 23.2085 26.7918 23.2085H18.8352C18.6865 23.2085 18.5634 23.0855 18.5634 22.9368V19.0405C18.5634 18.8918 18.6865 18.7688 18.8352 18.7688ZM26.5201 19.3173H19.1069V22.6651H26.5201V19.3173Z" fill="#1A1A1A" stroke="black" stroke-width="0.5"/>
<path d="M20.4248 22.0652C20.3171 22.1729 20.1428 22.1729 20.0403 22.0652C19.9326 21.9575 19.9326 21.7832 20.0403 21.6807L21.1322 20.5887C21.2245 20.4964 21.3732 20.4811 21.4809 20.558L22.9625 21.5474L25.3361 19.8761C25.4592 19.789 25.6284 19.8197 25.7155 19.9428C25.8027 20.0658 25.7719 20.235 25.6489 20.3221L23.1368 22.0908C23.0445 22.1626 22.9163 22.1729 22.8138 22.1062L21.3578 21.1373L20.4248 22.0703V22.0652ZM10.0688 21.0347V22.055H9.52539V21.0347H10.0688ZM11.8222 20.0555V22.055H11.2787V20.0555H11.8222ZM13.5755 21.5525V22.055H13.0269V21.5525H13.5755ZM14.4522 20.2965V22.055H13.9036V20.2965H14.4522ZM10.9455 20.2965V22.055H10.4021V20.2965H10.9455ZM15.3288 20.8092V22.055H14.7803V20.8092H15.3288ZM12.6988 20.8092V22.055H12.1503V20.8092H12.6988Z" fill="#1A1A1A"/>
</g>
<defs>
<clipPath id="clip0_2730_100">
<rect width="35" height="35" fill="white"/>
</clipPath>
</defs>
</svg>
